<?xml version="1.0" standalone="no"?>
<!DOCTYPE svg PUBLIC "-//W3C//DTD SVG 20010904//EN"
 "http://www.w3.org/TR/2001/REC-SVG-20010904/DTD/svg10.dtd">
<svg version="1.0" xmlns="http://www.w3.org/2000/svg"
 width="700.000000pt" height="700.000000pt" viewBox="0 0 700.000000 700.000000"
 preserveAspectRatio="xMidYMid meet">
<metadata>
Created by potrace 1.14, written by Peter Selinger 2001-2017
</metadata>
<g transform="translate(0.000000,700.000000) scale(0.100000,-0.100000)"
fill="#000000" stroke="none">
<path d="M1478 4815 c-2 -1 -50 -5 -108 -9 -474 -28 -841 -222 -1061 -562
-163 -249 -228 -626 -174 -999 26 -184 98 -371 198 -520 53 -78 204 -230 287
-287 187 -130 421 -209 690 -233 123 -11 366 -6 470 10 128 19 186 29 250 45
41 11 86 21 100 24 63 11 358 124 385 146 9 7 12 161 11 612 l-1 603 -505 0
-505 0 -1 -217 -1 -218 199 0 198 0 -2 -247 -3 -247 -70 -20 c-106 -29 -409
-29 -516 1 -245 69 -398 213 -479 454 -12 35 -24 74 -26 87 -14 83 -22 140
-23 157 -3 214 1 272 24 370 66 287 221 454 507 544 65 21 129 26 298 25 158
-1 260 -13 375 -46 22 -6 45 -12 50 -14 41 -9 178 -65 270 -110 60 -29 112
-51 114 -48 3 3 5 118 6 255 l0 251 -35 18 c-53 27 -234 87 -330 109 -177 41
-236 49 -415 57 -77 3 -148 7 -157 8 -9 2 -18 3 -20 1z"/>
<path d="M2610 3508 l0 -1263 325 0 325 0 0 110 c0 61 0 282 0 493 0 210 2
382 6 382 3 0 175 -168 383 -374 207 -206 430 -427 495 -492 l119 -117 576 -1
c317 -1 585 0 596 2 21 4 21 8 20 438 l0 434 65 0 c201 0 570 9 600 15 157 28
231 48 321 88 226 100 387 306 426 543 15 90 9 323 -10 403 -18 76 -84 231
-98 231 -4 0 -10 8 -13 18 -8 25 -93 111 -156 159 -100 75 -253 139 -387 162
-32 6 -74 13 -93 17 -19 4 -457 8 -973 10 l-938 3 -220 -217 c-122 -119 -287
-281 -367 -360 -81 -79 -193 -189 -249 -245 l-103 -101 1 429 c0 237 0 444 -1
461 l0 31 -325 2 -325 1 0 -1262z m2196 62 c0 -1040 0 -1049 -19 -1032 -11 9
-251 246 -534 527 l-515 510 220 215 c121 118 361 353 533 523 172 169 313
307 314 307 1 0 1 -472 1 -1050z m1165 706 c164 -49 242 -164 236 -349 -3 -78
-8 -101 -32 -150 -34 -68 -78 -111 -151 -144 -74 -33 -113 -38 -354 -38 l-214
0 -1 340 c-1 187 1 345 2 350 2 7 80 10 231 9 180 -1 239 -5 283 -18z"/>
</g>
</svg>
